<?xml version="1.0" encoding="UTF-8" standalone="no"?>
<svg width="256" height="256" viewBox="0 0 256 256" version="1.1" xmlns="http://www.w3.org/2000/svg" xmlns:xlink="http://www.w3.org/1999/xlink">
    
    <title>html [#124]</title>
    <desc>Created with Sketch.</desc>
    <defs>

</defs>
    <g transform="translate(128, 128) scale(12.2, 12.2) translate(-14, -10)">
        <path d="M5,0 L6.63812546,18.148 L13.98929,20 L21.3598345,18.111 L23,0 L5,0 Z" id="html-shield" fill="oklch(60% 0.01 250)"/>
        <path d="M19.4350881,6 L19.4279481,6 L10.8119794,6 L11.0180201,8 L19.2300674,8 C19.109707,9.752 18.7455658,13.464 18.6119454,15.153 L13.99949,16.451 L13.99949,16.455 L13.98929,16.46 L9.37377458,14.836 L9.05757353,11 L11.3199411,11 L11.4800816,13.063 L13.99337,14 L13.99949,14 L16.5086984,13.1 L16.7667592,10 L8.95659319,10 C8.91885306,9.599 8.43333144,4.392 8.34867116,4 L19.6370488,4 C19.5738086,4.66 19.5095484,5.338 19.4350881,6 L19.4350881,6 Z" id="html-5" fill="oklch(80% 0.01 250)"/>
    </g>
</svg>