<?xml version="1.0" encoding="UTF-8" standalone="no"?>
<svg width="256" height="256" viewBox="0 0 256 256" version="1.1" xmlns="http://www.w3.org/2000/svg" xmlns:xlink="http://www.w3.org/1999/xlink">
    
    <title>javascript [#155]</title>
    <desc>Created with Sketch.</desc>
    <defs>

</defs>
    <g transform="scale(12.8, 12.8)">
        <path d="M0,20 L20,20 L20,0 L0,0 L0,20 Z" id="js-background" fill="oklch(60% 0.01 250)"/>
        <path d="M15.328,18.432 C13.583,18.432 12.455,17.6 11.905,16.512 L11.905,16.512 L13.435,15.626 C13.838,16.284 14.361,16.767 15.288,16.767 C16.066,16.767 16.563,16.378 16.563,15.841 C16.563,15.033 15.485,14.717 14.724,14.391 C13.368,13.814 12.468,13.089 12.468,11.558 C12.468,10.149 13.542,9.075 15.221,9.075 C16.415,9.075 17.275,9.491 17.892,10.578 L16.429,11.518 C16.107,10.941 15.758,10.713 15.221,10.713 C14.67,10.713 14.321,11.062 14.321,11.518 C14.321,12.082 14.67,12.31 15.476,12.659 C17.165,13.383 18.443,13.952 18.443,15.814 C18.443,17.506 17.114,18.432 15.328,18.432 L15.328,18.432 Z M11,15.599 C11,17.546 9.801,18.575 8.136,18.575 C6.632,18.575 5.731,18 5.288,17 L5.273,17 L5.266,17 L5.262,17 L6.791,15.931 C7.086,16.454 7.352,16.825 7.996,16.825 C8.614,16.825 9,16.512 9,15.573 L9,9 L11,9 L11,15.599 Z" id="js-text" fill="oklch(80% 0.01 250)"/>
    </g>
</svg>